# xmcd CD database file
#
# Track frame offsets:
#	150
#	6098
#	15891
#	25937
#	38108
#	46706
#	60883
#	69980
#	81708
#	95349
#	103437
#	114799
#	122317
#	130553
#	141685
#	153057
#	160871
#	167923
#	175697
#
# Disc length: 2545 seconds
#
# Revision: 0
# Processed by: cddbd v1.5.1PL0 Copyright (c) Steve Scherf et al.
# Submitted via: CDex 1.51
#
DISCID=e009ef13
DTITLE=Jim Reeves - Greatest Hits
DYEAR=1900
DGENRE=Country
TTITLE0=Have I told You lately that I love You?
TTITLE1=Home
TTITLE2=Dear Hearts and Gentle People
TTITLE3=Your old Love Letters
TTITLE4=If You were mine
TTITLE5=Highway to Nowhere
TTITLE6=Wind Up Doll
TTITLE7=I've lived a lot in my Time
TTITLE8=How's the World treating You?
TTITLE9=Sweet Evening Breeze
TTITLE10=I love You more
TTITLE11=Oklahoma Hills
TTITLE12=Everywhere You go
TTITLE13=Just call me lonesome
TTITLE14=If Heartache is the Fashion
TTITLE15=Roly Poly
TTITLE16=I'm beginnig to forget You
TTITLE17=Till the End of the World
TTITLE18=Making believe
EXTD=
EXTT0=
EXTT1=
EXTT2=
EXTT3=
EXTT4=
EXTT5=
EXTT6=
EXTT7=
EXTT8=
EXTT9=
EXTT10=
EXTT11=
EXTT12=
EXTT13=
EXTT14=
EXTT15=
EXTT16=
EXTT17=
EXTT18=
PLAYORDER=
